<svg xmlns="http://www.w3.org/2000/svg" xmlns:xlink="http://www.w3.org/1999/xlink" id="processonSvg1000" viewBox="64.5 145.25 919.25 972.5" width="919.25" height="972.5"><defs id="ProcessOnDefs1001"><marker id="ProcessOnMarker1044" markerUnits="userSpaceOnUse" orient="auto" markerWidth="16.23606797749979" markerHeight="10.550836550532098" viewBox="-1.0 -1.3763819204711736 16.23606797749979 10.550836550532098" refX="-1.0" refY="3.8990363547948754"><path id="ProcessOnPath1045" d="M12.0 3.8990363547948754L0.0 7.798072709589751V0.0Z" stroke="#323232" stroke-width="2.0" fill="#323232" transform="matrix(1.0,0.0,0.0,1.0,0.0,0.0)"/></marker><marker id="ProcessOnMarker1051" markerUnits="userSpaceOnUse" orient="auto" markerWidth="16.23606797749979" markerHeight="10.550836550532098" viewBox="-1.0 -1.3763819204711736 16.23606797749979 10.550836550532098" refX="-1.0" refY="3.8990363547948754"><path id="ProcessOnPath1052" d="M12.0 3.8990363547948754L0.0 7.798072709589751V0.0Z" stroke="#323232" stroke-width="2.0" fill="#323232" transform="matrix(1.0,0.0,0.0,1.0,0.0,0.0)"/></marker><marker id="ProcessOnMarker1055" markerUnits="userSpaceOnUse" orient="auto" markerWidth="16.23606797749979" markerHeight="10.550836550532098" viewBox="-1.0 -1.3763819204711736 16.23606797749979 10.550836550532098" refX="-1.0" refY="3.8990363547948754"><path id="ProcessOnPath1056" d="M12.0 3.8990363547948754L0.0 7.798072709589751V0.0Z" stroke="#323232" stroke-width="2.0" fill="#323232" transform="matrix(1.0,0.0,0.0,1.0,0.0,0.0)"/></marker><marker id="ProcessOnMarker1059" markerUnits="userSpaceOnUse" orient="auto" markerWidth="16.23606797749979" markerHeight="10.550836550532098" viewBox="-1.0 -1.3763819204711736 16.23606797749979 10.550836550532098" refX="-1.0" refY="3.8990363547948754"><path id="ProcessOnPath1060" d="M12.0 3.8990363547948754L0.0 7.798072709589751V0.0Z" stroke="#323232" stroke-width="2.0" fill="#323232" transform="matrix(1.0,0.0,0.0,1.0,0.0,0.0)"/></marker><marker id="ProcessOnMarker1063" markerUnits="userSpaceOnUse" orient="auto" markerWidth="16.23606797749979" markerHeight="10.550836550532098" viewBox="-1.0 -1.3763819204711736 16.23606797749979 10.550836550532098" refX="-1.0" refY="3.8990363547948754"><path id="ProcessOnPath1064" d="M12.0 3.8990363547948754L0.0 7.798072709589751V0.0Z" stroke="#323232" stroke-width="2.0" fill="#323232" transform="matrix(1.0,0.0,0.0,1.0,0.0,0.0)"/></marker><marker id="ProcessOnMarker1067" markerUnits="userSpaceOnUse" orient="auto" markerWidth="16.23606797749979" markerHeight="10.550836550532098" viewBox="-1.0 -1.3763819204711736 16.23606797749979 10.550836550532098" refX="-1.0" refY="3.8990363547948754"><path id="ProcessOnPath1068" d="M12.0 3.8990363547948754L0.0 7.798072709589751V0.0Z" stroke="#323232" stroke-width="2.0" fill="#323232" transform="matrix(1.0,0.0,0.0,1.0,0.0,0.0)"/></marker></defs><g id="ProcessOnG1002"><path id="ProcessOnPath1003" d="M64.5 145.25H983.75V1117.75H64.5V145.25Z" fill="none"/><g id="ProcessOnG1004"><g id="ProcessOnG1005" transform="matrix(1.0,0.0,0.0,1.0,84.5,485.25)" opacity="1.0"><path id="ProcessOnPath1006" d="M0.0 0.0L512.0 0.0L512.0 112.0L0.0 112.0Z" stroke="#323232" stroke-width="2.0" stroke-dasharray="none" opacity="1.0" fill="#ffffff"/><g id="ProcessOnG1007" transform="matrix(1.0,0.0,0.0,1.0,10.0,22.25)"><text id="ProcessOnText1008" fill="#000000" font-weight="normal" font-style="normal" text-decoration="blink" font-family="微软雅黑" text-anchor="start" font-size="18" x="0.0" y="18.45">[Set-log]</text><text id="ProcessOnText1009" fill="#000000" font-weight="normal" font-style="normal" text-decoration="blink" font-family="微软雅黑" text-anchor="start" font-size="18" x="0.0" y="40.95"></text><text id="ProcessOnText1010" fill="#000000" font-weight="normal" font-style="normal" text-decoration="blink" font-family="微软雅黑" text-anchor="start" font-size="18" x="0.0" y="63.45">who, when, pathname, value, old-value [✓/⨉]</text></g></g><g id="ProcessOnG1011" transform="matrix(1.0,0.0,0.0,1.0,84.5,650.25)" opacity="1.0"><path id="ProcessOnPath1012" d="M0.0 0.0L512.0 0.0L512.0 113.0L0.0 113.0Z" stroke="#323232" stroke-width="2.0" stroke-dasharray="none" opacity="1.0" fill="#ffffff"/><g id="ProcessOnG1013" transform="matrix(1.0,0.0,0.0,1.0,10.0,22.75)"><text id="ProcessOnText1014" fill="#000000" font-weight="normal" font-style="normal" text-decoration="blink" font-family="微软雅黑" text-anchor="start" font-size="18" x="0.0" y="18.45">[Event-log]</text><text id="ProcessOnText1015" fill="#000000" font-weight="normal" font-style="normal" text-decoration="blink" font-family="微软雅黑" text-anchor="start" font-size="18" x="0.0" y="40.95"></text><text id="ProcessOnText1016" fill="#000000" font-weight="normal" font-style="normal" text-decoration="blink" font-family="微软雅黑" text-anchor="start" font-size="18" x="0.0" y="63.45">when, pathname, +/-, +/-, N/V, value </text></g></g><g id="ProcessOnG1017" transform="matrix(1.0,0.0,0.0,1.0,698.75,583.75)" opacity="1.0"><path id="ProcessOnPath1018" d="M39.75 0.0L242.5 0.0C271.1363636363636 0.0 271.1363636363636 135.0 242.5 135.0L39.75 135.0C-13.25 135.0 -13.25 0.0 39.75 0.0ZM242.5 0.0C214.375 0.0 214.375 135.0 242.5 135.0C214.375 135.0 214.375 0.0 242.5 0.0" stroke="#323232" stroke-width="2.0" stroke-dasharray="none" opacity="1.0" fill="#ffffff"/><g id="ProcessOnG1019" transform="matrix(1.0,0.0,0.0,1.0,0.0,37.5)"><text id="ProcessOnText1020" fill="#000000" font-weight="normal" font-style="normal" text-decoration="blink" font-family="微软雅黑" text-anchor="middle" font-size="24" x="106.0" y="24.6">Core</text><text id="ProcessOnText1021" fill="#000000" font-weight="normal" font-style="normal" text-decoration="blink" font-family="微软雅黑" text-anchor="middle" font-size="24" x="106.0" y="54.6">JSONTREE</text></g></g><g id="ProcessOnG1022" transform="matrix(1.0,0.0,0.0,1.0,84.5,324.25)" opacity="1.0"><path id="ProcessOnPath1023" d="M0.0 0.0L512.0 0.0L512.0 112.0L0.0 112.0Z" stroke="#323232" stroke-width="2.0" stroke-dasharray="none" opacity="1.0" fill="#ffffff"/><g id="ProcessOnG1024" transform="matrix(1.0,0.0,0.0,1.0,10.0,22.25)"><text id="ProcessOnText1025" fill="#000000" font-weight="normal" font-style="normal" text-decoration="blink" font-family="微软雅黑" text-anchor="start" font-size="18" x="0.0" y="18.45">[Set-request]</text><text id="ProcessOnText1026" fill="#000000" font-weight="normal" font-style="normal" text-decoration="blink" font-family="微软雅黑" text-anchor="start" font-size="18" x="0.0" y="40.95"></text><text id="ProcessOnText1027" fill="#000000" font-weight="normal" font-style="normal" text-decoration="blink" font-family="微软雅黑" text-anchor="start" font-size="18" x="0.0" y="63.45">who, pathname, value/function  [✓/⨉]</text></g></g><g id="ProcessOnG1028" transform="matrix(1.0,0.0,0.0,1.0,290.671875,165.25)" opacity="1.0"><path id="ProcessOnPath1029" d="M0.0 50.0C0.0 -16.666666666666668 100.0 -16.666666666666668 100.0 50.0C100.0 116.66666666666667 0.0 116.66666666666667 0.0 50.0Z" stroke="#323232" stroke-width="2.0" stroke-dasharray="none" opacity="1.0" fill="#ffffff"/><g id="ProcessOnG1030" transform="matrix(1.0,0.0,0.0,1.0,10.0,36.875)"><text id="ProcessOnText1031" fill="#000000" font-weight="normal" font-style="normal" text-decoration="blink" font-family="微软雅黑" text-anchor="middle" font-size="21" x="40.0" y="21.525">Writer</text></g></g><g id="ProcessOnG1032" transform="matrix(1.0,0.0,0.0,1.0,84.5,825.25)" opacity="1.0"><path id="ProcessOnPath1033" d="M0.0 0.0L512.0 0.0L512.0 113.0L0.0 113.0Z" stroke="#323232" stroke-width="2.0" stroke-dasharray="none" opacity="1.0" fill="#ffffff"/><g id="ProcessOnG1034" transform="matrix(1.0,0.0,0.0,1.0,10.0,22.75)"><text id="ProcessOnText1035" fill="#000000" font-weight="normal" font-style="normal" text-decoration="blink" font-family="微软雅黑" text-anchor="start" font-size="18" x="0.0" y="18.45">[Event-deliver] </text><text id="ProcessOnText1036" fill="#000000" font-weight="normal" font-style="normal" text-decoration="blink" font-family="微软雅黑" text-anchor="start" font-size="18" x="0.0" y="40.95"></text><text id="ProcessOnText1037" fill="#000000" font-weight="normal" font-style="normal" text-decoration="blink" font-family="微软雅黑" text-anchor="start" font-size="18" x="0.0" y="63.45">who, pathname, event, value </text></g></g><g id="ProcessOnG1038" transform="matrix(1.0,0.0,0.0,1.0,290.515625,997.75)" opacity="1.0"><path id="ProcessOnPath1039" d="M0.0 50.0C0.0 -16.666666666666668 100.0 -16.666666666666668 100.0 50.0C100.0 116.66666666666667 0.0 116.66666666666667 0.0 50.0Z" stroke="#323232" stroke-width="2.0" stroke-dasharray="none" opacity="1.0" fill="#ffffff"/><g id="ProcessOnG1040" transform="matrix(1.0,0.0,0.0,1.0,10.0,36.875)"><text id="ProcessOnText1041" fill="#000000" font-weight="normal" font-style="normal" text-decoration="blink" font-family="微软雅黑" text-anchor="middle" font-size="21" x="40.0" y="21.525">Reader</text></g></g><g id="ProcessOnG1042"><path id="ProcessOnPath1043" d="M596.5 541.25L831.25 541.25L831.25 568.5139320225002" stroke="#323232" stroke-width="2.0" stroke-dasharray="none" fill="none" marker-end="url(#ProcessOnMarker1044)"/><g id="ProcessOnG1046" transform="matrix(1.0,0.0,0.0,1.0,727.5069660112501,528.75)"><path id="ProcessOnPath1047" d="M0 0H116.0V25.0H0Z" fill="#fff" transform="matrix(1.0,0.0,0.0,1.0,-58.0,0.0)"/><text id="ProcessOnText1048" fill="#000000" font-weight="normal" font-style="normal" text-decoration="blink" font-family="微软雅黑" text-anchor="middle" font-size="20" x="0.0" y="20.5"> Rules check</text></g></g><g id="ProcessOnG1049"><path id="ProcessOnPath1050" d="M340.5 436.25L340.5 460.75L340.5 460.75L340.5 470.0139320225002" stroke="#323232" stroke-width="2.0" stroke-dasharray="none" fill="none" marker-end="url(#ProcessOnMarker1051)"/></g><g id="ProcessOnG1053"><path id="ProcessOnPath1054" d="M340.5 597.25L340.5 623.75L340.5 623.75L340.5 635.0139320225002" stroke="#323232" stroke-width="2.0" stroke-dasharray="none" fill="none" marker-end="url(#ProcessOnMarker1055)"/></g><g id="ProcessOnG1057"><path id="ProcessOnPath1058" d="M340.5 763.25L340.5 794.25L340.5 794.25L340.5 810.0139320225002" stroke="#323232" stroke-width="2.0" stroke-dasharray="none" fill="none" marker-end="url(#ProcessOnMarker1059)"/></g><g id="ProcessOnG1061"><path id="ProcessOnPath1062" d="M340.5 938.25L340.5 968.0L340.515625 968.0L340.515625 982.5139320225002" stroke="#323232" stroke-width="2.0" stroke-dasharray="none" fill="none" marker-end="url(#ProcessOnMarker1063)"/></g><g id="ProcessOnG1065"><path id="ProcessOnPath1066" d="M340.671875 265.25L340.671875 294.75L340.5 294.75L340.5 309.0139320225002" stroke="#323232" stroke-width="2.0" stroke-dasharray="none" fill="none" marker-end="url(#ProcessOnMarker1067)"/></g></g></g></svg>